<!DOCTYPE svg PUBLIC "-//W3C//DTD SVG 1.1//EN" "http://www.w3.org/Graphics/SVG/1.1/DTD/svg11.dtd">
<svg x="0" y="0" width="200" height="200" overflow="inherit" viewBox="0, 0, 200, 200" preserveAspectRatio="xMidYMid" font-size="0" id="svg16" xml:space="default" dc="http://purl.org/dc/elements/1.1/" cc="http://creativecommons.org/ns#" rdf="http://www.w3.org/1999/02/22-rdf-syntax-ns#" svg="http://www.w3.org/2000/svg" sodipodi="http://sodipodi.sourceforge.net/DTD/sodipodi-0.dtd" inkscape="http://www.inkscape.org/namespaces/inkscape" docname="Templates.svg" xmlns="http://www.w3.org/2000/svg" xmlns:xlink="http://www.w3.org/1999/xlink" xmlns:xml="http://www.w3.org/XML/1998/namespace" version="1.1">
  <defs id="defs10" xml:space="default" />
  <namedview id="base" xml:space="default" pagecolor="#ffffff" bordercolor="#666666" borderopacity="1.0" pageopacity="0.0" pageshadow="2" zoom="2.8" cx="103.87536" cy="99.635333" document-units="px" current-layer="layer1" showgrid="false" units="px" window-width="1842" window-height="1057" window-x="70" window-y="-8" window-maximized="1" />
  <metadata id="metadata13" xml:space="default"></metadata>
  <g id="layer1" xml:space="default" label="Layer 1" groupmode="layer">
    <path d="M47.73684 48.12281 L44.52632 57.08772 L41.01724 66.0862 L40 71.6" stroke="#000000" fill-opacity="0" stroke-width="2" xml:space="default" />
    <path d="M53.72973 49.56757 L61.33333 47.90741 L70.33334 47.01852 L79.33334 44.98148 L88.33334 43.90741 L97.33334 42.64815 L106.3333 41.12963 L115.3333 40.12963 L124.3333 38.7963 L133.3333 37.57407 L142.3333 36.42593 L151.3333 35.5 L153.4651 40.37209 L148.5763 48.16949 L144.6087 56.08696" stroke="#000000" fill-opacity="0" stroke-width="2" xml:space="default" />
    <path d="M81.05797 82.9855 L91.33334 81.01852 L100.3333 79.31481 L109.3333 77.7963 L118.3333 75.87037 L127.3333 74.2037" stroke="#000000" fill-opacity="0" stroke-width="2" xml:space="default" />
    <path d="M76.68421 59.94737 L76.5 69.16666 L75.13725 77.72549 L73.19149 87.68085 L71.0566 95.81132 L67.76786 104.2143 L64.93478 111.9783 L69.7234 115.7234 L77.85714 114.1429 L86.33334 112.9074 L95.33334 111.3148 L104.3333 109.9074 L112.98 108.5 L121.4151 107.4528 L130.3273 107 L136.4359 111.359 L136.5472 119.283 L135.5455 128.0909 L134.0392 136.6078 L132.4643 145.1607 L130.4643 154.1607 L128.25 163.125 L125.814 170.6744 L120.3902 171.2683 L114.7234 165.4468 L107.0857 158.7" stroke="#000000" fill-opacity="0" stroke-width="2" xml:space="default" />
    <path d="M30.5 142.1538 L39.33333 140.6852 L48.33333 139.537 L57.33333 137.9074 L66.33334 136.9074 L75.33334 135.0926 L84.33334 134.0185 L93.33334 132.4259 L102.3333 131.1296 L110.3333 129.7381" stroke="#000000" fill-opacity="0" stroke-width="2" xml:space="default" />
  </g>
</svg>