<?xml version="1.0" encoding="UTF-8" standalone="no"?>
<svg
   xmlns:dc="http://purl.org/dc/elements/1.1/"
   xmlns:cc="http://creativecommons.org/ns#"
   xmlns:rdf="http://www.w3.org/1999/02/22-rdf-syntax-ns#"
   xmlns:svg="http://www.w3.org/2000/svg"
   xmlns="http://www.w3.org/2000/svg"
   xmlns:sodipodi="http://sodipodi.sourceforge.net/DTD/sodipodi-0.dtd"
   xmlns:inkscape="http://www.inkscape.org/namespaces/inkscape"
   x="0"
   y="0"
   width="200"
   height="200"
   overflow="inherit"
   viewBox="0, 0, 200, 200"
   preserveAspectRatio="xMidYMid"
   font-size="0"
   id="svg16"
   xml:space="default"
   dc="http://purl.org/dc/elements/1.1/"
   cc="http://creativecommons.org/ns#"
   rdf="http://www.w3.org/1999/02/22-rdf-syntax-ns#"
   svg="http://www.w3.org/2000/svg"
   sodipodi="http://sodipodi.sourceforge.net/DTD/sodipodi-0.dtd"
   inkscape="http://www.inkscape.org/namespaces/inkscape"
   docname="Templates.svg"
   version="1.1"
   sodipodi:docname="Templates.svg"
   inkscape:version="0.92.2 (5c3e80d, 2017-08-06)">
  <sodipodi:namedview
     pagecolor="#ffffff"
     bordercolor="#666666"
     borderopacity="1"
     objecttolerance="10"
     gridtolerance="10"
     guidetolerance="10"
     inkscape:pageopacity="0"
     inkscape:pageshadow="2"
     inkscape:window-width="1842"
     inkscape:window-height="1057"
     id="namedview743"
     showgrid="false"
     inkscape:zoom="3.337544"
     inkscape:cx="135.42916"
     inkscape:cy="101.62864"
     inkscape:window-x="70"
     inkscape:window-y="-8"
     inkscape:window-maximized="1"
     inkscape:current-layer="svg16" />
  <defs
     id="defs10"
     xml:space="default" />
  <namedview
     id="base"
     xml:space="default"
     pagecolor="#ffffff"
     bordercolor="#666666"
     borderopacity="1.0"
     pageopacity="0.0"
     pageshadow="2"
     zoom="2.8"
     cx="103.87536"
     cy="99.635333"
     document-units="px"
     current-layer="layer1"
     showgrid="false"
     units="px"
     window-width="1842"
     window-height="1057"
     window-x="70"
     window-y="-8"
     window-maximized="1" />
  <metadata
     id="metadata13"
     xml:space="default">
    <rdf:RDF>
      <cc:Work
         rdf:about="">
        <dc:format>image/svg+xml</dc:format>
        <dc:type
           rdf:resource="http://purl.org/dc/dcmitype/StillImage" />
      </cc:Work>
    </rdf:RDF>
  </metadata>
  <g
     id="layer1"
     xml:space="default"
     label="Layer 1"
     groupmode="layer">
    <path
       d="M95.11905 30.42857 L99.97222 35.27778 L103.8611 40.22222"
       stroke="#000000"
       fill-opacity="0"
       stroke-width="2"
       xml:space="default"
       id="path729" />
    <path
       d="M51.32911 51.40506 L48.05263 62.17544 L44.53659 69.58537"
       stroke="#000000"
       fill-opacity="0"
       stroke-width="2"
       xml:space="default"
       id="path731" />
    <path
       d="M56.35714 56.59524 L64.33334 55.5 L73.33334 53.98148 L82.33334 52.57407 L91.33334 50.98148 L100.3333 49.90741 L109.3333 48.7963 L118.3333 47.2037 L127.3333 46.01852 L136.3333 45.12963 L145.3333 43.7963 L154.0385 43.05769 L151.6981 49.73585 L144.8033 57.08197"
       stroke="#000000"
       fill-opacity="0"
       stroke-width="2"
       xml:space="default"
       id="path733" />
    <path
       id="path737"
       d="m 99.075,100 4.8159,8.3273 1.694,8.9557 1.1132,9 -0.389,8.9352 -0.8091,8.9485 -0.9545,8.9242 -1.6169,8.9805 -2.3967,8.035 -7.13904,1.6436 -8.48517,-5.6885 -6.58626,-4.4544 m -6.26879,-80.37903 9.2807,-1.69103 9,-1.88889 9,-1.74074 8.99996,-2.03704 9,-1.44444 7.6101,1.04576 -4.6483,7.90536 -8.4569,7.71118 -8.5525,6.94748 -4.4107,3.58929" stroke="#000000" fill-opacity="0"
       stroke-width="2" />
    <path
       d="M43.56 122.3733 L54.33333 121.5 L63.33333 120.6852 L72.33334 120.1296 L81.33334 119.1296 L90.33334 118.5 L98.63043 117.5 L110.7308 116.8846 L117.3333 116.5 L126.3333 115.463 L135.3333 115.0185 L144.3333 114.5 L153.3333 113.7963 L162.3333 113.3519 L169.3333 112.5"
       stroke="#000000"
       fill-opacity="0"
       stroke-width="2"
       xml:space="default"
       id="path739" />
  </g>
</svg>
