<!DOCTYPE svg PUBLIC "-//W3C//DTD SVG 1.1//EN" "http://www.w3.org/Graphics/SVG/1.1/DTD/svg11.dtd">
<svg x="0" y="0" width="200" height="200" overflow="inherit" viewBox="0, 0, 200, 200" preserveAspectRatio="xMidYMid" font-size="0" id="svg16" xml:space="default" dc="http://purl.org/dc/elements/1.1/" cc="http://creativecommons.org/ns#" rdf="http://www.w3.org/1999/02/22-rdf-syntax-ns#" svg="http://www.w3.org/2000/svg" sodipodi="http://sodipodi.sourceforge.net/DTD/sodipodi-0.dtd" inkscape="http://www.inkscape.org/namespaces/inkscape" docname="Templates.svg" xmlns="http://www.w3.org/2000/svg" xmlns:xlink="http://www.w3.org/1999/xlink" xmlns:xml="http://www.w3.org/XML/1998/namespace" version="1.1">
  <defs id="defs10" xml:space="default" />
  <namedview id="base" xml:space="default" pagecolor="#ffffff" bordercolor="#666666" borderopacity="1.0" pageopacity="0.0" pageshadow="2" zoom="2.8" cx="103.87536" cy="99.635333" document-units="px" current-layer="layer1" showgrid="false" units="px" window-width="1842" window-height="1057" window-x="70" window-y="-8" window-maximized="1" />
  <metadata id="metadata13" xml:space="default"></metadata>
  <g id="layer1" xml:space="default" label="Layer 1" groupmode="layer">
    <path d="M81.78461 53.4 L72.79688 60.54688 L64.31373 65.90196 L55.84211 69.05264 L48.31579 71.39474" stroke="#000000" fill-opacity="0" stroke-width="2" xml:space="default" />
    <path d="M41.5 99.68421 L52.33333 97.57407 L61.33333 95.98148 L70.33334 93.87037 L79.33334 92.64815 L88.33334 90.42593 L97.33334 88.87037 L106.3333 87.35185 L115.3333 85.31481 L124.3333 83.75926 L133.3333 82.01852 L142.3333 80.2037 L150.3333 79.16666" stroke="#000000" fill-opacity="0" stroke-width="2" xml:space="default" />
    <path d="M72.9 68.46 L72.5 77.16666 L72.47059 85.88235 L71.42105 93.88158 L72.5 104.1667 L72.5 113.1667 L72.5 122.1667 L72.5 131.1667 L72.5 140.1667 L72.5 149.1667 L72.5 158.1667 L71 166.1667 L63.86 165.72 L56.2931 160.3448" stroke="#000000" fill-opacity="0" stroke-width="2" xml:space="default" />
    <path d="M35 138.5 L44.05 133.5833 L53.25862 129.2759 L62.23214 124.8393 L71.94444 120.9444 L80.36364 116.3636 L89.10526 112.8421 L95.83334 110.0833" stroke="#000000" fill-opacity="0" stroke-width="2" xml:space="default" />
    <path d="M105.8182 29.9697 L107.283 37.28302 L108.6964 46.28571 L109.5962 55.38462 L111.3962 64.28302 L113.3962 73.28302 L114.4643 80.14286 L117.413 91.8913 L119.1296 100.3333 L122.1296 109.2222 L124.5893 118.2321 L127.5893 127.2679 L131.6035 136.2241 L136.0833 145.25 L141.9206 154.0476 L149.0154 162.5692 L157.3036 168.875 L164.6046 172.3023 L169.7556 168.2222 L170.5185 159.8333 L170.5 150.8333 L170.5 144.3333" stroke="#000000" fill-opacity="0" stroke-width="2" xml:space="default" />
    <path d="M152.0625 101.55 L147.55 112.15 L142.7541 121.0492 L136.6491 129.193 L126.025 139.75 L118.7969 145.5469 L109.5517 150.9655 L100.6364 155 L94.78947 156.7368" stroke="#000000" fill-opacity="0" stroke-width="2" xml:space="default" />
    <path d="M130.9143 48.54286 L136.4 53.24 L142.8 58.33333 L147.5556 62.66667" stroke="#000000" fill-opacity="0" stroke-width="2" xml:space="default" />
  </g>
</svg>