<?xml version="1.0" encoding="UTF-8" standalone="no"?>
<!-- Created with Inkscape (http://www.inkscape.org/) -->

<svg
   xmlns:dc="http://purl.org/dc/elements/1.1/"
   xmlns:cc="http://creativecommons.org/ns#"
   xmlns:rdf="http://www.w3.org/1999/02/22-rdf-syntax-ns#"
   xmlns:svg="http://www.w3.org/2000/svg"
   xmlns="http://www.w3.org/2000/svg"
   xmlns:sodipodi="http://sodipodi.sourceforge.net/DTD/sodipodi-0.dtd"
   xmlns:inkscape="http://www.inkscape.org/namespaces/inkscape"
   id="svg2307"
   version="1.1"
   viewBox="0 0 190.5 52.916668"
   height="200"
   width="720"
   inkscape:version="0.92.2 (5c3e80d, 2017-08-06)"
   sodipodi:docname="我爱写汉字.svg">
  <defs
     id="defs2301" />
  <sodipodi:namedview
     inkscape:window-maximized="1"
     inkscape:window-y="-8"
     inkscape:window-x="70"
     inkscape:window-height="1057"
     inkscape:window-width="1842"
     inkscape:snap-others="false"
     inkscape:snap-nodes="false"
     units="px"
     showgrid="false"
     inkscape:current-layer="svg2307"
     inkscape:document-units="px"
     inkscape:cy="181.43367"
     inkscape:cx="520.11525"
     inkscape:zoom="0.98994949"
     inkscape:pageshadow="2"
     inkscape:pageopacity="0.0"
     borderopacity="1.0"
     bordercolor="#666666"
     pagecolor="#ffffff"
     id="base" />
  <metadata
     id="metadata2304">
    <rdf:RDF>
      <cc:Work
         rdf:about="">
        <dc:format>image/svg+xml</dc:format>
        <dc:type
           rdf:resource="http://purl.org/dc/dcmitype/StillImage" />
        <dc:title></dc:title>
      </cc:Work>
    </rdf:RDF>
  </metadata>
  <g
     inkscape:label="Layer 1"
     inkscape:groupmode="layer"
     id="layer1"
     transform="translate(0,-244.08332)">
    <g
       style="font-size:0px;overflow:inherit"
       id="g2387"
       transform="matrix(0.26458333,0,0,0.26458333,-2.9360083,244.18736)">
      <g
         groupmode="layer"
         label="Layer 1"
         xml:space="default"
         id="layer1-8">
        <path
           id="path2361"
           xml:space="default"
           d="m 81.78461,53.4 -8.98773,7.14688 -8.48315,5.35508 -8.47162,3.15068 -7.52632,2.3421"
           inkscape:connector-curvature="0"
           style="fill-opacity:0;stroke:#000000;stroke-width:2" />
        <path
           id="path2363"
           xml:space="default"
           d="m 41.5,99.68421 10.83333,-2.11014 9,-1.59259 9.00001,-2.11111 9,-1.22222 9,-2.22222 9,-1.55556 8.99996,-1.51852 9,-2.03704 9,-1.55555 9,-1.74074 9,-1.81482 8,-1.03704"
           inkscape:connector-curvature="0"
           style="fill-opacity:0;stroke:#000000;stroke-width:2" />
        <path
           id="path2365"
           xml:space="default"
           d="m 72.9,68.46 -0.4,8.70666 -0.02941,8.71569 -1.04954,7.99923 L 72.5,104.1667 v 9 9 9 9 9 9 l -1.5,8 -7.14,-0.4467 -7.5669,-5.3752"
           inkscape:connector-curvature="0"
           style="fill-opacity:0;stroke:#000000;stroke-width:2" />
        <path
           id="path2367"
           xml:space="default"
           d="m 35,138.5 9.05,-4.9167 9.20862,-4.3074 8.97352,-4.4366 9.7123,-3.8949 8.4192,-4.5808 8.74162,-3.5215 6.72808,-2.7588"
           inkscape:connector-curvature="0"
           style="fill-opacity:0;stroke:#000000;stroke-width:2" />
        <path
           id="path2369"
           xml:space="default"
           d="m 105.8182,29.9697 1.4648,7.31332 1.4134,9.00269 0.8998,9.09891 1.8,8.8984 2,9 1.0681,6.85984 2.9487,11.74844 1.7166,8.442 3,8.8889 2.4597,9.0099 3,9.0358 4.0142,8.9562 4.4798,9.0259 5.8373,8.7976 7.0948,8.5216 8.2882,6.3058 7.301,3.4273 5.151,-4.0801 0.7629,-8.3889 -0.0185,-9 v -6.5"
           inkscape:connector-curvature="0"
           style="fill-opacity:0;stroke:#000000;stroke-width:2" />
        <path
           id="path2371"
           xml:space="default"
           d="m 152.0625,101.55 -4.5125,10.6 -4.7959,8.8992 -6.105,8.1438 -10.6241,10.557 -7.2281,5.7969 -9.2452,5.4186 -8.9153,4.0345 -5.84693,1.7368"
           inkscape:connector-curvature="0"
           style="fill-opacity:0;stroke:#000000;stroke-width:2" />
        <path
           id="path2373"
           xml:space="default"
           d="M 130.9143,48.54286 136.4,53.24 l 6.4,5.09333 4.7556,4.33334"
           inkscape:connector-curvature="0"
           style="fill-opacity:0;stroke:#000000;stroke-width:2" />
      </g>
    </g>
    <g
       style="font-size:0px;overflow:inherit"
       id="g2452"
       transform="matrix(0.26458333,0,0,0.26458333,36.71375,243.51168)">
      <g
         groupmode="layer"
         label="Layer 1"
         xml:space="default"
         id="layer1-7">
        <path
           id="path2417"
           xml:space="default"
           d="M 113.2453,25.4717 104.5254,30.15254 96.08,33.76 87.78947,36.73684 78.67242,39.51724 69.63636,41.83636 64.16666,42.5"
           inkscape:connector-curvature="0"
           style="fill-opacity:0;stroke:#000000;stroke-width:2" />
        <path
           id="path2419"
           xml:space="default"
           d="M 66.33334,56.6 71,62.5 l 3.5862,4.94827"
           inkscape:connector-curvature="0"
           style="fill-opacity:0;stroke:#000000;stroke-width:2" />
        <path
           id="path2421"
           xml:space="default"
           d="m 92.86487,51.08108 4.02875,5.98275 3.41408,6.55155"
           inkscape:connector-curvature="0"
           style="fill-opacity:0;stroke:#000000;stroke-width:2" />
        <path
           id="path2423"
           xml:space="default"
           d="m 130.4648,47.47887 -5.6523,8.47946 -4.7216,6.42803"
           inkscape:connector-curvature="0"
           style="fill-opacity:0;stroke:#000000;stroke-width:2" />
        <path
           id="path2425"
           xml:space="default"
           d="M 48.9375,73.97916 45.24528,81.64151 40.75,90.15 38.5,95.66666"
           inkscape:connector-curvature="0"
           style="fill-opacity:0;stroke:#000000;stroke-width:2" />
        <path
           id="path2427"
           xml:space="default"
           d="m 51.65385,79.96154 6.67948,-1.98006 9.00001,-0.62963 9,-1.44444 9,-0.77778 9,-1 8.99996,-1.44444 9,-1.11112 9,-1 9,-1 9,-1.14814 9,-0.92593 9,-1.18519 7.0223,0.57408 -5.9228,7.99171 -5.8382,6.87616"
           inkscape:connector-curvature="0"
           style="fill-opacity:0;stroke:#000000;stroke-width:2" />
        <path
           id="path2429"
           xml:space="default"
           d="m 50.0303,107.8182 7.30303,-1.0219 9.00001,-0.8889 9,-0.4074 9,-1.037 9,-1 8.99996,-0.5556 9,-1 9,-0.7778 9,-0.7777 9,-0.8519"
           inkscape:connector-curvature="0"
           style="fill-opacity:0;stroke:#000000;stroke-width:2" />
        <path
           id="path2431"
           xml:space="default"
           d="m 94.18965,85.94827 -2.55807,9.15699 -1.91252,7.54714 -5.14279,10.5001 -4.82627,8.9975 -5.75,8.4263 -7.28986,8.2498 -8.93073,8.2033 -8.99253,6.8886 -8.90552,5.3701 -8.63608,4.1647"
           inkscape:connector-curvature="0"
           style="fill-opacity:0;stroke:#000000;stroke-width:2" />
        <path
           id="path2433"
           xml:space="default"
           d="m 84.45,125.225 7.88334,-1.3176 8.99996,-1.1111 9,-1.2222 8.4014,-1.1659 6.7653,2.2657 -2.1122,7.4077 -5.3151,6.9911 -6.8658,6.6514 -8.3037,6.5178 -8.83869,6 -9.13347,4.8443 -9.03449,3.7931 -9.12869,2.2278 -7.99513,2.0293"
           inkscape:connector-curvature="0"
           style="fill-opacity:0;stroke:#000000;stroke-width:2" />
        <path
           id="path2435"
           xml:space="default"
           d="m 83.95238,135.8571 9.01484,5.4544 10.11088,7.2823 7.9719,5.6062 8.7227,6.3455 9.4273,5.2878 8.4923,3.9936 8.5007,3.0152 9.1403,0.6579 8.4626,-0.7245"
           inkscape:connector-curvature="0"
           style="fill-opacity:0;stroke:#000000;stroke-width:2" />
      </g>
    </g>
    <g
       style="font-size:0px;overflow:inherit"
       id="g2492"
       transform="matrix(0.26458333,0,0,0.26458333,74.157875,243.18953)">
      <g
         groupmode="layer"
         label="Layer 1"
         xml:space="default"
         id="layer1-3">
        <path
           id="path2472"
           xml:space="default"
           d="M 47.73684,48.12281 44.52632,57.08772 41.01724,66.0862 40,71.6"
           inkscape:connector-curvature="0"
           style="fill-opacity:0;stroke:#000000;stroke-width:2" />
        <path
           id="path2474"
           xml:space="default"
           d="m 53.72973,49.56757 7.6036,-1.66016 9.00001,-0.88889 9,-2.03704 9,-1.07407 9,-1.25926 8.99996,-1.51852 9,-1 9,-1.33333 9,-1.22223 9,-1.14814 9,-0.92593 2.1318,4.87209 -4.8888,7.7974 -3.9676,7.91747"
           inkscape:connector-curvature="0"
           style="fill-opacity:0;stroke:#000000;stroke-width:2" />
        <path
           id="path2476"
           xml:space="default"
           d="m 81.05797,82.9855 10.27537,-1.96698 8.99996,-1.70371 9,-1.51851 9,-1.92593 9,-1.66667"
           inkscape:connector-curvature="0"
           style="fill-opacity:0;stroke:#000000;stroke-width:2" />
        <path
           id="path2478"
           xml:space="default"
           d="M 76.68421,59.94737 76.5,69.16666 l -1.36275,8.55883 -1.94576,9.95536 -2.13489,8.13047 -3.28874,8.40298 -2.83308,7.764 4.78862,3.7451 8.13374,-1.5805 8.4762,-1.2355 9,-1.5926 8.99996,-1.4074 8.6467,-1.4074 8.4351,-1.0472 8.9122,-0.4528 6.1086,4.359 0.1113,7.924 -1.0017,8.8079 -1.5063,8.5169 -1.5749,8.5529 -2,9 -2.2143,8.9643 -2.436,7.5494 -5.4238,0.5939 -5.6668,-5.8215 -7.6377,-6.7468"
           inkscape:connector-curvature="0"
           style="fill-opacity:0;stroke:#000000;stroke-width:2" />
        <path
           id="path2480"
           xml:space="default"
           d="m 30.5,142.1538 8.83333,-1.4686 9,-1.1482 9,-1.6296 9.00001,-1 9,-1.8148 9,-1.0741 9,-1.5926 8.99996,-1.2963 8,-1.3915"
           inkscape:connector-curvature="0"
           style="fill-opacity:0;stroke:#000000;stroke-width:2" />
      </g>
    </g>
    <g
       style="font-size:0px;overflow:inherit"
       id="g2532"
       transform="matrix(0.26458333,0,0,0.26458333,107.37365,243.79356)">
      <g
         groupmode="layer"
         label="Layer 1"
         xml:space="default"
         id="layer1-2">
        <path
           id="path2512"
           xml:space="default"
           d="m 51.81818,48.4697 7.31516,6.30808"
           inkscape:connector-curvature="0"
           style="fill-opacity:0;stroke:#000000;stroke-width:2" />
        <path
           id="path2514"
           xml:space="default"
           d="m 34.38824,83.04706 9.48931,6.58559"
           inkscape:connector-curvature="0"
           style="fill-opacity:0;stroke:#000000;stroke-width:2" />
        <path
           id="path2516"
           xml:space="default"
           d="m 36.45205,150.863 5.92295,-10.238 5.21429,-8.7857 5.47738,-9.0226 5.37976,-9.1203 5.14286,-8.8571 L 68.1,97.35"
           inkscape:connector-curvature="0"
           style="fill-opacity:0;stroke:#000000;stroke-width:2" />
        <path
           id="path2518"
           xml:space="default"
           d="m 87.5,57.60526 10.83334,-2.40156 8.99996,-2 9,-2.48148 9,-1.81481 8.7044,-0.681 2.3223,7.47359 -2.7284,8.40526 -3.1053,8.98246 -3.2105,8.96492 -3.402,9.01632 -3.8305,8.88104 -4.551,9.0016 -4.7782,9.0976 -6.4056,8.8599 -7.73311,8.2909 -8.99872,6.6667 -9.05527,4.6596 -8.90685,3.5828 -8.85098,2.2123 -5.96146,1.7312"
           inkscape:connector-curvature="0"
           style="fill-opacity:0;stroke:#000000;stroke-width:2" />
        <path
           id="path2520"
           xml:space="default"
           d="m 78.91428,71.54285 6.69136,6.51349 8.12163,8.8073 7.07573,8.95454 6.4697,9.31822 5.7383,9.0511 7.4132,8.858 L 128,132 l 8.7727,7.5455 9.2773,5.8712 9.1224,4.0488 9.1185,1.789 9.0424,0.2455 h 5.5"
           inkscape:connector-curvature="0"
           style="fill-opacity:0;stroke:#000000;stroke-width:2" />
      </g>
    </g>
    <g
       style="font-size:0px;overflow:inherit"
       id="g2560"
       transform="matrix(0.26458333,0,0,0.26458333,142.8832,242.40923)">
      <g
         groupmode="layer"
         label="Layer 1"
         xml:space="default"
         id="layer1-9">
        <path
           id="path729"
           xml:space="default"
           d="m 95.11905,30.42857 4.85317,4.84921 3.88888,4.94444"
           inkscape:connector-curvature="0"
           style="fill-opacity:0;stroke:#000000;stroke-width:2" />
        <path
           id="path731"
           xml:space="default"
           d="m 51.32911,51.40506 -3.27648,10.77038 -3.51604,7.40993"
           inkscape:connector-curvature="0"
           style="fill-opacity:0;stroke:#000000;stroke-width:2" />
        <path
           id="path733"
           xml:space="default"
           d="m 56.35714,56.59524 7.9762,-1.09524 9,-1.51852 9,-1.40741 9,-1.59259 8.99996,-1.07407 9,-1.11111 9,-1.5926 9,-1.18518 9,-0.88889 9,-1.33333 8.7052,-0.73861 -2.3404,6.67816 -6.8948,7.34612"
           inkscape:connector-curvature="0"
           style="fill-opacity:0;stroke:#000000;stroke-width:2" />
        <path
           d="m 99.075,100 4.8159,8.3273 1.694,8.9557 1.1132,9 -0.389,8.9352 -0.8091,8.9485 -0.9545,8.9242 -1.6169,8.9805 -2.3967,8.035 -7.13904,1.6436 -8.48517,-5.6885 -6.58626,-4.4544 m -6.26879,-80.37903 9.2807,-1.69103 9,-1.88889 9,-1.74074 8.99996,-2.03704 9,-1.44444 7.6101,1.04576 -4.6483,7.90536 -8.4569,7.71118 -8.5525,6.94748 -4.4107,3.58929"
           id="path737"
           inkscape:connector-curvature="0"
           style="fill-opacity:0;stroke:#000000;stroke-width:2" />
        <path
           id="path739"
           xml:space="default"
           d="m 43.56,122.3733 10.77333,-0.8733 9,-0.8148 9.00001,-0.5556 9,-1 9,-0.6296 8.29709,-1 12.10037,-0.6154 6.6025,-0.3846 9,-1.037 9,-0.4445 9,-0.5185 9,-0.7037 9,-0.4444 7,-0.8519"
           inkscape:connector-curvature="0"
           style="fill-opacity:0;stroke:#000000;stroke-width:2" />
      </g>
    </g>
  </g>
</svg>
