<!DOCTYPE svg PUBLIC "-//W3C//DTD SVG 1.1//EN" "http://www.w3.org/Graphics/SVG/1.1/DTD/svg11.dtd">
<svg x="0" y="0" width="200" height="200" overflow="inherit" viewBox="0, 0, 200, 200" preserveAspectRatio="xMidYMid" font-size="0" id="svg16" xml:space="default" dc="http://purl.org/dc/elements/1.1/" cc="http://creativecommons.org/ns#" rdf="http://www.w3.org/1999/02/22-rdf-syntax-ns#" svg="http://www.w3.org/2000/svg" sodipodi="http://sodipodi.sourceforge.net/DTD/sodipodi-0.dtd" inkscape="http://www.inkscape.org/namespaces/inkscape" docname="Templates.svg" xmlns="http://www.w3.org/2000/svg" xmlns:xlink="http://www.w3.org/1999/xlink" xmlns:xml="http://www.w3.org/XML/1998/namespace" version="1.1">
  <defs id="defs10" xml:space="default" />
  <namedview id="base" xml:space="default" pagecolor="#ffffff" bordercolor="#666666" borderopacity="1.0" pageopacity="0.0" pageshadow="2" zoom="2.8" cx="103.87536" cy="99.635333" document-units="px" current-layer="layer1" showgrid="false" units="px" window-width="1842" window-height="1057" window-x="70" window-y="-8" window-maximized="1" />
  <metadata id="metadata13" xml:space="default"></metadata>
  <g id="layer1" xml:space="default" label="Layer 1" groupmode="layer">
    <path d="M51.81818 48.4697 L59.13334 54.77778" stroke="#000000" fill-opacity="0" stroke-width="2" xml:space="default" />
    <path d="M34.38824 83.04706 L43.87755 89.63265" stroke="#000000" fill-opacity="0" stroke-width="2" xml:space="default" />
    <path d="M36.45205 150.863 L42.375 140.625 L47.58929 131.8393 L53.06667 122.8167 L58.44643 113.6964 L63.58929 104.8393 L68.1 97.35" stroke="#000000" fill-opacity="0" stroke-width="2" xml:space="default" />
    <path d="M87.5 57.60526 L98.33334 55.2037 L107.3333 53.2037 L116.3333 50.72222 L125.3333 48.90741 L134.0377 48.22641 L136.36 55.7 L133.6316 64.10526 L130.5263 73.08772 L127.3158 82.05264 L123.9138 91.06896 L120.0833 99.95 L115.5323 108.9516 L110.7541 118.0492 L104.3485 126.9091 L96.61539 135.2 L87.61667 141.8667 L78.5614 146.5263 L69.65455 150.1091 L60.80357 152.3214 L54.84211 154.0526" stroke="#000000" fill-opacity="0" stroke-width="2" xml:space="default" />
    <path d="M78.91428 71.54285 L85.60564 78.05634 L93.72727 86.86364 L100.803 95.81818 L107.2727 105.1364 L113.011 114.1875 L120.4242 123.0455 L128 132 L136.7727 139.5455 L146.05 145.4167 L155.1724 149.4655 L164.2909 151.2545 L173.3333 151.5 L178.8333 151.5" stroke="#000000" fill-opacity="0" stroke-width="2" xml:space="default" />
  </g>
</svg>