<!DOCTYPE svg PUBLIC "-//W3C//DTD SVG 1.1//EN" "http://www.w3.org/Graphics/SVG/1.1/DTD/svg11.dtd">
<svg x="0" y="0" width="200" height="200" overflow="inherit" viewBox="0, 0, 200, 200" preserveAspectRatio="xMidYMid" font-size="0" id="svg16" xml:space="default" dc="http://purl.org/dc/elements/1.1/" cc="http://creativecommons.org/ns#" rdf="http://www.w3.org/1999/02/22-rdf-syntax-ns#" svg="http://www.w3.org/2000/svg" sodipodi="http://sodipodi.sourceforge.net/DTD/sodipodi-0.dtd" inkscape="http://www.inkscape.org/namespaces/inkscape" docname="Templates.svg" xmlns="http://www.w3.org/2000/svg" xmlns:xlink="http://www.w3.org/1999/xlink" xmlns:xml="http://www.w3.org/XML/1998/namespace" version="1.1">
  <defs id="defs10" xml:space="default" />
  <namedview id="base" xml:space="default" pagecolor="#ffffff" bordercolor="#666666" borderopacity="1.0" pageopacity="0.0" pageshadow="2" zoom="2.8" cx="103.87536" cy="99.635333" document-units="px" current-layer="layer1" showgrid="false" units="px" window-width="1842" window-height="1057" window-x="70" window-y="-8" window-maximized="1" />
  <metadata id="metadata13" xml:space="default"></metadata>
  <g id="layer1" xml:space="default" label="Layer 1" groupmode="layer">
    <path d="M51.33333 57.5 L60.33333 56.68518 L69.33334 55.46296 L78.33334 54.7963 L87.33334 53.57407 L96.33334 52.46296 L105.3333 51.68518 L114.3333 50.57407 L123.3333 49.68518 L132.3333 48.68518 L141.3333 47.7963 L150.3333 47.12963 L156.3333 46.5" stroke="#000000" fill-opacity="0" stroke-width="2" xml:space="default" />
    <path d="M79.76923 32.46154 L81.01786 40.28571 L81.39474 48.15789 L82.81818 60 L83.40741 67.16666 L83.5 74.16666" stroke="#000000" fill-opacity="0" stroke-width="2" xml:space="default" />
    <path d="M117.8182 25.9697 L116.6545 33.10909 L115.4364 42.07273 L115.3333 49.41539 L113.5455 60.09091 L112.6977 68.11628" stroke="#000000" fill-opacity="0" stroke-width="2" xml:space="default" />
    <path d="M87.16666 75.52778 L95.33334 74.24074 L104.3333 73.35185 L111 73" stroke="#000000" fill-opacity="0" stroke-width="2" xml:space="default" />
    <path d="M64.81818 85.9697 L64.5 93.16666 L64.5 102.1667 L64.5 111.1667 L64.5 119.1667" stroke="#000000" fill-opacity="0" stroke-width="2" xml:space="default" />
    <path d="M41.93221 105.9492 L50.85714 104.102 L58.12195 102.8781" stroke="#000000" fill-opacity="0" stroke-width="2" xml:space="default" />
    <path d="M40 130.5 L47.33333 128.537 L56.33333 125.5 L65.39474 123.2368 L71.26316 120.5789" stroke="#000000" fill-opacity="0" stroke-width="2" xml:space="default" />
    <path d="M82.80303 103.4697 L84.27084 112.75 L85.27084 120.6667" stroke="#000000" fill-opacity="0" stroke-width="2" xml:space="default" />
    <path d="M87.44 97.86 L96.33334 96.09259 L104.4 94.44444 L112.1321 94.16982 L111.8364 102.1636 L109.3158 111.0526 L107.84 117.64" stroke="#000000" fill-opacity="0" stroke-width="2" xml:space="default" />
    <path d="M94.83334 121.2639 L104.0286 119.9143 L112.2632 118.6316" stroke="#000000" fill-opacity="0" stroke-width="2" xml:space="default" />
    <path d="M155.2571 87.91428 L149.0909 92.98182 L141.7234 97.7234 L135.1892 100.1622" stroke="#000000" fill-opacity="0" stroke-width="2" xml:space="default" />
    <path d="M129.64 81.44 L129.5 92.16666 L129.3529 101.1765 L129.5 110.1667 L131.3125 118.7708 L136.3721 124.1628 L144.2545 125.4727 L152.8775 125.2653 L159.9583 122.25 L160.5 113.8333 L160.5 108.3333" stroke="#000000" fill-opacity="0" stroke-width="2" xml:space="default" />
    <path d="M43.9434 149.4906 L40.73684 158.1228 L37.46154 166.5962 L34.73077 172.5385" stroke="#000000" fill-opacity="0" stroke-width="2" xml:space="default" />
    <path d="M78.42623 153.9508 L82.73684 163.1579 L86.20588 170.1765" stroke="#000000" fill-opacity="0" stroke-width="2" xml:space="default" />
    <path d="M111.5 148 L115.4545 154.5273 L120.661 162.7797 L124.1667 167.9167" stroke="#000000" fill-opacity="0" stroke-width="2" xml:space="default" />
    <path d="M150.0769 147.8718 L156.5 155 L164.459 163.5246 L169.5862 169.4483" stroke="#000000" fill-opacity="0" stroke-width="2" xml:space="default" />
  </g>
</svg>