<!DOCTYPE svg PUBLIC "-//W3C//DTD SVG 1.1//EN" "http://www.w3.org/Graphics/SVG/1.1/DTD/svg11.dtd">
<svg x="0" y="0" width="200" height="200" overflow="inherit" viewBox="0, 0, 200, 200" preserveAspectRatio="xMidYMid" font-size="0" id="svg16" xml:space="default" dc="http://purl.org/dc/elements/1.1/" cc="http://creativecommons.org/ns#" rdf="http://www.w3.org/1999/02/22-rdf-syntax-ns#" svg="http://www.w3.org/2000/svg" sodipodi="http://sodipodi.sourceforge.net/DTD/sodipodi-0.dtd" inkscape="http://www.inkscape.org/namespaces/inkscape" docname="Templates.svg" xmlns="http://www.w3.org/2000/svg" xmlns:xlink="http://www.w3.org/1999/xlink" xmlns:xml="http://www.w3.org/XML/1998/namespace" version="1.1">
  <defs id="defs10" xml:space="default" />
  <namedview id="base" xml:space="default" pagecolor="#ffffff" bordercolor="#666666" borderopacity="1.0" pageopacity="0.0" pageshadow="2" zoom="2.8" cx="103.87536" cy="99.635333" document-units="px" current-layer="layer1" showgrid="false" units="px" window-width="1842" window-height="1057" window-x="70" window-y="-8" window-maximized="1" />
  <metadata id="metadata13" xml:space="default"></metadata>
  <g id="layer1" xml:space="default" label="Layer 1" groupmode="layer">
    <path d="M113.2453 25.4717 L104.5254 30.15254 L96.08 33.76 L87.78947 36.73684 L78.67242 39.51724 L69.63636 41.83636 L64.16666 42.5" stroke="#000000" fill-opacity="0" stroke-width="2" xml:space="default" />
    <path d="M66.33334 56.6 L71 62.5 L74.5862 67.44827" stroke="#000000" fill-opacity="0" stroke-width="2" xml:space="default" />
    <path d="M92.86487 51.08108 L96.89362 57.06383 L100.3077 63.61538" stroke="#000000" fill-opacity="0" stroke-width="2" xml:space="default" />
    <path d="M130.4648 47.47887 L124.8125 55.95833 L120.0909 62.38636" stroke="#000000" fill-opacity="0" stroke-width="2" xml:space="default" />
    <path d="M48.9375 73.97916 L45.24528 81.64151 L40.75 90.15 L38.5 95.66666" stroke="#000000" fill-opacity="0" stroke-width="2" xml:space="default" />
    <path d="M51.65385 79.96154 L58.33333 77.98148 L67.33334 77.35185 L76.33334 75.90741 L85.33334 75.12963 L94.33334 74.12963 L103.3333 72.68519 L112.3333 71.57407 L121.3333 70.57407 L130.3333 69.57407 L139.3333 68.42593 L148.3333 67.5 L157.3333 66.31481 L164.3556 66.88889 L158.4328 74.8806 L152.5946 81.75676" stroke="#000000" fill-opacity="0" stroke-width="2" xml:space="default" />
    <path d="M50.0303 107.8182 L57.33333 106.7963 L66.33334 105.9074 L75.33334 105.5 L84.33334 104.463 L93.33334 103.463 L102.3333 102.9074 L111.3333 101.9074 L120.3333 101.1296 L129.3333 100.3519 L138.3333 99.5" stroke="#000000" fill-opacity="0" stroke-width="2" xml:space="default" />
    <path d="M94.18965 85.94827 L91.63158 95.10526 L89.71906 102.6524 L84.57627 113.1525 L79.75 122.15 L74 130.5763 L66.71014 138.8261 L57.77941 147.0294 L48.78688 153.918 L39.88136 159.2881 L31.24528 163.4528" stroke="#000000" fill-opacity="0" stroke-width="2" xml:space="default" />
    <path d="M84.45 125.225 L92.33334 123.9074 L101.3333 122.7963 L110.3333 121.5741 L118.7347 120.4082 L125.5 122.6739 L123.3878 130.0816 L118.0727 137.0727 L111.2069 143.7241 L102.9032 150.2419 L94.06451 156.2419 L84.93104 161.0862 L75.89655 164.8793 L66.76786 167.1071 L58.77273 169.1364" stroke="#000000" fill-opacity="0" stroke-width="2" xml:space="default" />
    <path d="M83.95238 135.8571 L92.96722 141.3115 L103.0781 148.5938 L111.05 154.2 L119.7727 160.5455 L129.2 165.8333 L137.6923 169.8269 L146.193 172.8421 L155.3333 173.5 L163.7959 172.7755" stroke="#000000" fill-opacity="0" stroke-width="2" xml:space="default" />
  </g>
</svg>