<!DOCTYPE svg PUBLIC "-//W3C//DTD SVG 1.1//EN" "http://www.w3.org/Graphics/SVG/1.1/DTD/svg11.dtd">
<svg x="0" y="0" width="200" height="200" overflow="inherit" viewBox="0, 0, 200, 200" preserveAspectRatio="xMidYMid" font-size="0" id="svg16" xml:space="default" dc="http://purl.org/dc/elements/1.1/" cc="http://creativecommons.org/ns#" rdf="http://www.w3.org/1999/02/22-rdf-syntax-ns#" svg="http://www.w3.org/2000/svg" sodipodi="http://sodipodi.sourceforge.net/DTD/sodipodi-0.dtd" inkscape="http://www.inkscape.org/namespaces/inkscape" docname="Templates.svg" xmlns="http://www.w3.org/2000/svg" xmlns:xlink="http://www.w3.org/1999/xlink" xmlns:xml="http://www.w3.org/XML/1998/namespace" version="1.1">
  <defs id="defs10" xml:space="default" />
  <namedview id="base" xml:space="default" pagecolor="#ffffff" bordercolor="#666666" borderopacity="1.0" pageopacity="0.0" pageshadow="2" zoom="2.8" cx="103.87536" cy="99.635333" document-units="px" current-layer="layer1" showgrid="false" units="px" window-width="1842" window-height="1057" window-x="70" window-y="-8" window-maximized="1" />
  <metadata id="metadata13" xml:space="default"></metadata>
  <g id="layer1" xml:space="default" label="Layer 1" groupmode="layer">
    <path d="M43.27778 45.97222 L48.08621 52.44828 L52.625 57.125" stroke="#000000" fill-opacity="0" stroke-width="2" xml:space="default" />
    <path d="M76.85 33.475 L71.51786 43.46429 L65.1129 51.22581" stroke="#000000" fill-opacity="0" stroke-width="2" xml:space="default" />
    <path d="M38.54902 70.43137 L47.33333 69.12963 L56.33333 67.7963 L65.33334 65.98148 L74.33334 64.31481 L79.83334 63.5" stroke="#000000" fill-opacity="0" stroke-width="2" xml:space="default" />
    <path d="M37.53846 94.76923 L45.33333 93.09259 L54.33333 91.53704 L63.33333 89.90741 L72.33334 88.2037 L77.83334 86.83334" stroke="#000000" fill-opacity="0" stroke-width="2" xml:space="default" />
    <path d="M24.43396 120 L33.33333 117.8704 L42.33333 115.8704 L51.33333 113.6111 L60.33333 111.3148 L69.33334 108.8333 L78.33334 106.4259" stroke="#000000" fill-opacity="0" stroke-width="2" xml:space="default" />
    <path d="M58.73684 73.57895 L58.5 81.16666 L58.48901 90.48352 L57.9434 99.35849 L56.71429 106.4571 L55.24324 118.7027 L52.52632 126.0877 L49.32759 135.1379 L44.26229 143.9344 L36.83099 152.7183 L27.60656 159.8197" stroke="#000000" fill-opacity="0" stroke-width="2" xml:space="default" />
    <path d="M92.5 60.15385 L101.3333 58.53704 L109.7959 56.77551 L113.9362 61.51064 L113.5 70.16666 L113.5 79.16666 L113.5 88.16666 L113.5 97.16666 L113.5 106.1667 L113.5 115.1667 L113.5 124.1667 L113.5 133.1667 L113.5 142.1667 L112.617 150.2766 L107.3696 152.8044 L100.2321 147.0714 L93.46667 141.5556" stroke="#000000" fill-opacity="0" stroke-width="2" xml:space="default" />
    <path d="M89.17308 80.21154 L95.60976 84.80488 L101.5 88.66666" stroke="#000000" fill-opacity="0" stroke-width="2" xml:space="default" />
    <path d="M81.95313 123.7656 L90.06451 116.629 L98.82353 109.5294 L104.8571 104.7619" stroke="#000000" fill-opacity="0" stroke-width="2" xml:space="default" />
    <path d="M131.5385 54.5641 L139.3333 52.53704 L148.3333 50.7963 L157.3333 49.46296 L160.7333 55.97778 L160.5 64.16666 L160.5 73.16666 L160.5 82.16666 L160.5 91.16666 L160.5 100.1667 L160.5 109.1667 L160.5 118.1667 L160.5 127.1667 L160.5 136.1667 L160.5 145.1667 L159.7636 154.1273 L156.2703 159.5946 L150.3636 155.5455 L143.0435 148.9275 L137 143.8636" stroke="#000000" fill-opacity="0" stroke-width="2" xml:space="default" />
    <path d="M125.6452 77.25806 L130.4651 81.72093 L136.5319 86.29787 L140.9091 89.45454" stroke="#000000" fill-opacity="0" stroke-width="2" xml:space="default" />
    <path d="M126.3953 120.6744 L132.6071 114.8571 L139.8793 108.1897 L147.2923 100.5231 L152.125 95.375" stroke="#000000" fill-opacity="0" stroke-width="2" xml:space="default" />
  </g>
</svg>